<mxfile host="app.diagrams.net" agent="Mozilla/5.0 (Windows NT 10.0; Win64; x64) AppleWebKit/537.36 (KHTML, like Gecko) Chrome/138.0.0.0 Safari/537.36 Edg/138.0.0.0" version="28.0.7">
  <diagram name="Page-1" id="3RaFwJO0DdSI-xSjQ3UZ">
    <mxGraphModel dx="2034" dy="920" grid="1" gridSize="10" guides="1" tooltips="1" connect="1" arrows="1" fold="1" page="1" pageScale="1" pageWidth="850" pageHeight="1100" math="0" shadow="0">
      <root>
        <mxCell id="0" />
        <mxCell id="1" parent="0" />
        <mxCell id="PnB6dPYVmI-Tpx26_ryA-46" value="" style="edgeStyle=orthogonalEdgeStyle;rounded=0;orthogonalLoop=1;jettySize=auto;html=1;endArrow=none;endFill=0;" edge="1" parent="1" source="PnB6dPYVmI-Tpx26_ryA-37" target="PnB6dPYVmI-Tpx26_ryA-45">
          <mxGeometry relative="1" as="geometry">
            <Array as="points">
              <mxPoint x="865" y="220" />
            </Array>
          </mxGeometry>
        </mxCell>
        <mxCell id="PnB6dPYVmI-Tpx26_ryA-37" value="Assign Station to Technician" style="rounded=0;whiteSpace=wrap;html=1;" vertex="1" parent="1">
          <mxGeometry x="460" y="190" width="120" height="60" as="geometry" />
        </mxCell>
        <mxCell id="PnB6dPYVmI-Tpx26_ryA-38" value="User" style="text;html=1;align=center;verticalAlign=middle;whiteSpace=wrap;rounded=0;fontSize=20;" vertex="1" parent="1">
          <mxGeometry x="535" y="40" width="60" height="30" as="geometry" />
        </mxCell>
        <mxCell id="PnB6dPYVmI-Tpx26_ryA-39" value="Technician" style="text;html=1;align=center;verticalAlign=middle;whiteSpace=wrap;rounded=0;fontSize=20;" vertex="1" parent="1">
          <mxGeometry x="990" y="40" width="60" height="30" as="geometry" />
        </mxCell>
        <mxCell id="PnB6dPYVmI-Tpx26_ryA-48" value="" style="edgeStyle=orthogonalEdgeStyle;rounded=0;orthogonalLoop=1;jettySize=auto;html=1;endArrow=none;endFill=0;" edge="1" parent="1" source="PnB6dPYVmI-Tpx26_ryA-45" target="PnB6dPYVmI-Tpx26_ryA-47">
          <mxGeometry relative="1" as="geometry" />
        </mxCell>
        <mxCell id="PnB6dPYVmI-Tpx26_ryA-50" value="" style="edgeStyle=orthogonalEdgeStyle;rounded=0;orthogonalLoop=1;jettySize=auto;html=1;endArrow=none;endFill=0;" edge="1" parent="1" source="PnB6dPYVmI-Tpx26_ryA-45" target="PnB6dPYVmI-Tpx26_ryA-49">
          <mxGeometry relative="1" as="geometry" />
        </mxCell>
        <mxCell id="PnB6dPYVmI-Tpx26_ryA-45" value="Take Action" style="rhombus;whiteSpace=wrap;html=1;rounded=0;" vertex="1" parent="1">
          <mxGeometry x="825" y="250" width="80" height="80" as="geometry" />
        </mxCell>
        <mxCell id="PnB6dPYVmI-Tpx26_ryA-47" value="Onsite" style="whiteSpace=wrap;html=1;rounded=0;" vertex="1" parent="1">
          <mxGeometry x="805" y="360" width="120" height="60" as="geometry" />
        </mxCell>
        <mxCell id="PnB6dPYVmI-Tpx26_ryA-52" value="" style="edgeStyle=orthogonalEdgeStyle;rounded=0;orthogonalLoop=1;jettySize=auto;html=1;endArrow=none;endFill=0;" edge="1" parent="1" source="PnB6dPYVmI-Tpx26_ryA-49" target="PnB6dPYVmI-Tpx26_ryA-51">
          <mxGeometry relative="1" as="geometry">
            <Array as="points">
              <mxPoint x="1020" y="480" />
            </Array>
          </mxGeometry>
        </mxCell>
        <mxCell id="PnB6dPYVmI-Tpx26_ryA-49" value="Online" style="whiteSpace=wrap;html=1;rounded=0;" vertex="1" parent="1">
          <mxGeometry x="960" y="260" width="120" height="60" as="geometry" />
        </mxCell>
        <mxCell id="PnB6dPYVmI-Tpx26_ryA-51" value="Upload Report" style="whiteSpace=wrap;html=1;rounded=0;" vertex="1" parent="1">
          <mxGeometry x="805" y="450" width="120" height="60" as="geometry" />
        </mxCell>
        <mxCell id="PnB6dPYVmI-Tpx26_ryA-53" value="" style="edgeStyle=orthogonalEdgeStyle;rounded=0;orthogonalLoop=1;jettySize=auto;html=1;entryX=0.5;entryY=0;entryDx=0;entryDy=0;endArrow=none;endFill=0;" edge="1" parent="1" target="PnB6dPYVmI-Tpx26_ryA-51">
          <mxGeometry relative="1" as="geometry">
            <mxPoint x="864.44" y="420" as="sourcePoint" />
            <mxPoint x="864.44" y="510" as="targetPoint" />
          </mxGeometry>
        </mxCell>
        <mxCell id="PnB6dPYVmI-Tpx26_ryA-61" value="" style="endArrow=none;html=1;rounded=0;dashed=1;dashPattern=8 8;" edge="1" parent="1">
          <mxGeometry width="50" height="50" relative="1" as="geometry">
            <mxPoint x="774" y="1040" as="sourcePoint" />
            <mxPoint x="774" y="70" as="targetPoint" />
          </mxGeometry>
        </mxCell>
        <mxCell id="PnB6dPYVmI-Tpx26_ryA-64" value="Check Charger Status" style="rounded=0;whiteSpace=wrap;html=1;" vertex="1" parent="1">
          <mxGeometry x="445" y="262.5" width="150" height="60" as="geometry" />
        </mxCell>
        <mxCell id="PnB6dPYVmI-Tpx26_ryA-66" value="View AI Prediction Results" style="rounded=0;whiteSpace=wrap;html=1;" vertex="1" parent="1">
          <mxGeometry x="430" y="420" width="180" height="60" as="geometry" />
        </mxCell>
        <mxCell id="PnB6dPYVmI-Tpx26_ryA-68" value="View My Stations" style="rounded=0;whiteSpace=wrap;html=1;" vertex="1" parent="1">
          <mxGeometry x="430" y="337.5" width="180" height="60" as="geometry" />
        </mxCell>
        <mxCell id="PnB6dPYVmI-Tpx26_ryA-127" value="" style="edgeStyle=orthogonalEdgeStyle;rounded=0;orthogonalLoop=1;jettySize=auto;html=1;endArrow=none;endFill=0;" edge="1" parent="1" source="PnB6dPYVmI-Tpx26_ryA-70" target="PnB6dPYVmI-Tpx26_ryA-126">
          <mxGeometry relative="1" as="geometry" />
        </mxCell>
        <mxCell id="PnB6dPYVmI-Tpx26_ryA-70" value="Add Stations" style="rounded=0;whiteSpace=wrap;html=1;" vertex="1" parent="1">
          <mxGeometry x="430" y="550" width="180" height="60" as="geometry" />
        </mxCell>
        <mxCell id="PnB6dPYVmI-Tpx26_ryA-72" value="Update Status" style="whiteSpace=wrap;html=1;rounded=0;" vertex="1" parent="1">
          <mxGeometry x="1100" y="210" width="120" height="60" as="geometry" />
        </mxCell>
        <mxCell id="PnB6dPYVmI-Tpx26_ryA-76" value="AI" style="text;html=1;align=center;verticalAlign=middle;whiteSpace=wrap;rounded=0;fontSize=20;" vertex="1" parent="1">
          <mxGeometry x="1440" y="40" width="60" height="30" as="geometry" />
        </mxCell>
        <mxCell id="PnB6dPYVmI-Tpx26_ryA-80" value="" style="edgeStyle=orthogonalEdgeStyle;rounded=0;orthogonalLoop=1;jettySize=auto;html=1;endArrow=none;endFill=0;" edge="1" parent="1" source="PnB6dPYVmI-Tpx26_ryA-77" target="PnB6dPYVmI-Tpx26_ryA-88">
          <mxGeometry relative="1" as="geometry">
            <mxPoint x="1490" y="167.5" as="targetPoint" />
          </mxGeometry>
        </mxCell>
        <mxCell id="PnB6dPYVmI-Tpx26_ryA-77" value="Check Health Index" style="whiteSpace=wrap;html=1;rounded=0;" vertex="1" parent="1">
          <mxGeometry x="1100" y="137.5" width="120" height="60" as="geometry" />
        </mxCell>
        <mxCell id="PnB6dPYVmI-Tpx26_ryA-79" value="Monitor CBM Dashboard" style="whiteSpace=wrap;html=1;rounded=0;" vertex="1" parent="1">
          <mxGeometry x="1100" y="370" width="120" height="60" as="geometry" />
        </mxCell>
        <mxCell id="PnB6dPYVmI-Tpx26_ryA-81" value="View Maintenance Schedule" style="whiteSpace=wrap;html=1;rounded=0;" vertex="1" parent="1">
          <mxGeometry x="1100" y="290" width="120" height="60" as="geometry" />
        </mxCell>
        <mxCell id="PnB6dPYVmI-Tpx26_ryA-87" value="" style="endArrow=none;html=1;rounded=0;dashed=1;dashPattern=8 8;" edge="1" parent="1">
          <mxGeometry width="50" height="50" relative="1" as="geometry">
            <mxPoint x="1300" y="1040" as="sourcePoint" />
            <mxPoint x="1300" y="70" as="targetPoint" />
          </mxGeometry>
        </mxCell>
        <mxCell id="PnB6dPYVmI-Tpx26_ryA-88" value="Model" style="rounded=0;whiteSpace=wrap;html=1;" vertex="1" parent="1">
          <mxGeometry x="1330" y="137.5" width="120" height="60" as="geometry" />
        </mxCell>
        <mxCell id="PnB6dPYVmI-Tpx26_ryA-89" value="" style="edgeStyle=orthogonalEdgeStyle;rounded=0;orthogonalLoop=1;jettySize=auto;html=1;endArrow=none;endFill=0;exitX=0.5;exitY=0;exitDx=0;exitDy=0;entryX=0.5;entryY=0;entryDx=0;entryDy=0;" edge="1" parent="1" source="PnB6dPYVmI-Tpx26_ryA-77" target="PnB6dPYVmI-Tpx26_ryA-88">
          <mxGeometry relative="1" as="geometry">
            <mxPoint x="1220" y="237.5" as="sourcePoint" />
            <mxPoint x="1390" y="130" as="targetPoint" />
            <Array as="points">
              <mxPoint x="1160" y="120" />
              <mxPoint x="1390" y="120" />
            </Array>
          </mxGeometry>
        </mxCell>
        <mxCell id="PnB6dPYVmI-Tpx26_ryA-90" value="Send Predict Results" style="text;html=1;align=center;verticalAlign=middle;whiteSpace=wrap;rounded=0;" vertex="1" parent="1">
          <mxGeometry x="1400" y="115" width="130" height="30" as="geometry" />
        </mxCell>
        <mxCell id="PnB6dPYVmI-Tpx26_ryA-92" value="" style="edgeStyle=orthogonalEdgeStyle;rounded=0;orthogonalLoop=1;jettySize=auto;html=1;endArrow=none;endFill=0;entryX=0.5;entryY=1;entryDx=0;entryDy=0;exitX=0.5;exitY=1;exitDx=0;exitDy=0;" edge="1" parent="1" source="PnB6dPYVmI-Tpx26_ryA-66" target="PnB6dPYVmI-Tpx26_ryA-93">
          <mxGeometry relative="1" as="geometry">
            <mxPoint x="380" y="450" as="sourcePoint" />
            <mxPoint x="2127" y="330" as="targetPoint" />
            <Array as="points">
              <mxPoint x="520" y="530" />
              <mxPoint x="1550" y="530" />
            </Array>
          </mxGeometry>
        </mxCell>
        <mxCell id="PnB6dPYVmI-Tpx26_ryA-93" value="Model" style="rounded=0;whiteSpace=wrap;html=1;" vertex="1" parent="1">
          <mxGeometry x="1490" y="280" width="120" height="60" as="geometry" />
        </mxCell>
        <mxCell id="PnB6dPYVmI-Tpx26_ryA-94" value="" style="edgeStyle=orthogonalEdgeStyle;rounded=0;orthogonalLoop=1;jettySize=auto;html=1;endArrow=none;endFill=0;entryX=0.5;entryY=0;entryDx=0;entryDy=0;exitX=0;exitY=0.5;exitDx=0;exitDy=0;" edge="1" parent="1" source="PnB6dPYVmI-Tpx26_ryA-66" target="PnB6dPYVmI-Tpx26_ryA-93">
          <mxGeometry relative="1" as="geometry">
            <mxPoint x="200" y="250" as="sourcePoint" />
            <mxPoint x="2090" y="340" as="targetPoint" />
            <Array as="points">
              <mxPoint x="410" y="450" />
              <mxPoint x="410" y="100" />
              <mxPoint x="1550" y="100" />
            </Array>
          </mxGeometry>
        </mxCell>
        <mxCell id="PnB6dPYVmI-Tpx26_ryA-95" value="Send Predict Results" style="text;html=1;align=center;verticalAlign=middle;whiteSpace=wrap;rounded=0;" vertex="1" parent="1">
          <mxGeometry x="1550" y="250" width="130" height="30" as="geometry" />
        </mxCell>
        <mxCell id="PnB6dPYVmI-Tpx26_ryA-83" value="View Assigned Stations" style="whiteSpace=wrap;html=1;rounded=0;" vertex="1" parent="1">
          <mxGeometry x="1100" y="450" width="120" height="60" as="geometry" />
        </mxCell>
        <mxCell id="PnB6dPYVmI-Tpx26_ryA-98" value="" style="endArrow=none;html=1;rounded=0;dashed=1;dashPattern=8 8;" edge="1" parent="1">
          <mxGeometry width="50" height="50" relative="1" as="geometry">
            <mxPoint x="360" y="1030" as="sourcePoint" />
            <mxPoint x="360" y="80" as="targetPoint" />
          </mxGeometry>
        </mxCell>
        <mxCell id="PnB6dPYVmI-Tpx26_ryA-99" value="Admin" style="text;html=1;align=center;verticalAlign=middle;whiteSpace=wrap;rounded=0;fontSize=20;" vertex="1" parent="1">
          <mxGeometry x="170" y="40" width="60" height="30" as="geometry" />
        </mxCell>
        <mxCell id="PnB6dPYVmI-Tpx26_ryA-101" value="Manage User Accounts" style="rounded=0;whiteSpace=wrap;html=1;" vertex="1" parent="1">
          <mxGeometry x="40" y="100" width="120" height="60" as="geometry" />
        </mxCell>
        <mxCell id="PnB6dPYVmI-Tpx26_ryA-102" value="View All Stations" style="rounded=0;whiteSpace=wrap;html=1;" vertex="1" parent="1">
          <mxGeometry x="40" y="185" width="120" height="60" as="geometry" />
        </mxCell>
        <mxCell id="PnB6dPYVmI-Tpx26_ryA-103" value="Assign Station to Technician" style="rounded=0;whiteSpace=wrap;html=1;" vertex="1" parent="1">
          <mxGeometry x="40" y="620" width="120" height="60" as="geometry" />
        </mxCell>
        <mxCell id="PnB6dPYVmI-Tpx26_ryA-104" value="Set Notification Preferences" style="rounded=0;whiteSpace=wrap;html=1;" vertex="1" parent="1">
          <mxGeometry x="40" y="270" width="120" height="60" as="geometry" />
        </mxCell>
        <mxCell id="PnB6dPYVmI-Tpx26_ryA-105" value="Manage System Configuration" style="rounded=0;whiteSpace=wrap;html=1;" vertex="1" parent="1">
          <mxGeometry x="40" y="350" width="120" height="60" as="geometry" />
        </mxCell>
        <mxCell id="PnB6dPYVmI-Tpx26_ryA-106" value="View Reports (PM,CM)" style="rounded=0;whiteSpace=wrap;html=1;" vertex="1" parent="1">
          <mxGeometry x="40" y="430" width="120" height="60" as="geometry" />
        </mxCell>
        <mxCell id="PnB6dPYVmI-Tpx26_ryA-107" value="Monitor Realtime Data" style="rounded=0;whiteSpace=wrap;html=1;" vertex="1" parent="1">
          <mxGeometry x="40" y="510" width="120" height="60" as="geometry" />
        </mxCell>
        <mxCell id="PnB6dPYVmI-Tpx26_ryA-108" value="View Health Index" style="rounded=0;whiteSpace=wrap;html=1;" vertex="1" parent="1">
          <mxGeometry x="40" y="870" width="120" height="60" as="geometry" />
        </mxCell>
        <mxCell id="PnB6dPYVmI-Tpx26_ryA-112" value="" style="edgeStyle=orthogonalEdgeStyle;rounded=0;orthogonalLoop=1;jettySize=auto;html=1;endArrow=none;endFill=0;" edge="1" parent="1" target="PnB6dPYVmI-Tpx26_ryA-115">
          <mxGeometry relative="1" as="geometry">
            <mxPoint x="865.0588235294119" y="680.0011764705878" as="sourcePoint" />
          </mxGeometry>
        </mxCell>
        <mxCell id="PnB6dPYVmI-Tpx26_ryA-113" value="" style="edgeStyle=orthogonalEdgeStyle;rounded=0;orthogonalLoop=1;jettySize=auto;html=1;endArrow=none;endFill=0;" edge="1" parent="1" source="PnB6dPYVmI-Tpx26_ryA-114" target="PnB6dPYVmI-Tpx26_ryA-117">
          <mxGeometry relative="1" as="geometry" />
        </mxCell>
        <mxCell id="PnB6dPYVmI-Tpx26_ryA-114" value="Take Action" style="rhombus;whiteSpace=wrap;html=1;rounded=0;" vertex="1" parent="1">
          <mxGeometry x="825" y="610" width="80" height="80" as="geometry" />
        </mxCell>
        <mxCell id="PnB6dPYVmI-Tpx26_ryA-115" value="Onsite" style="whiteSpace=wrap;html=1;rounded=0;" vertex="1" parent="1">
          <mxGeometry x="805" y="710.06" width="120" height="60" as="geometry" />
        </mxCell>
        <mxCell id="PnB6dPYVmI-Tpx26_ryA-116" value="" style="edgeStyle=orthogonalEdgeStyle;rounded=0;orthogonalLoop=1;jettySize=auto;html=1;endArrow=none;endFill=0;" edge="1" parent="1" source="PnB6dPYVmI-Tpx26_ryA-117" target="PnB6dPYVmI-Tpx26_ryA-119">
          <mxGeometry relative="1" as="geometry">
            <Array as="points">
              <mxPoint x="1020" y="820" />
            </Array>
          </mxGeometry>
        </mxCell>
        <mxCell id="PnB6dPYVmI-Tpx26_ryA-117" value="Online" style="whiteSpace=wrap;html=1;rounded=0;" vertex="1" parent="1">
          <mxGeometry x="960" y="620" width="120" height="60" as="geometry" />
        </mxCell>
        <mxCell id="PnB6dPYVmI-Tpx26_ryA-118" value="" style="edgeStyle=orthogonalEdgeStyle;rounded=0;orthogonalLoop=1;jettySize=auto;html=1;endArrow=none;endFill=0;entryX=1;entryY=0.5;entryDx=0;entryDy=0;" edge="1" parent="1" source="PnB6dPYVmI-Tpx26_ryA-119" target="PnB6dPYVmI-Tpx26_ryA-123">
          <mxGeometry relative="1" as="geometry">
            <mxPoint x="450" y="900" as="targetPoint" />
            <Array as="points">
              <mxPoint x="320" y="820" />
            </Array>
          </mxGeometry>
        </mxCell>
        <mxCell id="PnB6dPYVmI-Tpx26_ryA-119" value="Upload Report" style="whiteSpace=wrap;html=1;rounded=0;" vertex="1" parent="1">
          <mxGeometry x="805" y="790" width="120" height="60" as="geometry" />
        </mxCell>
        <mxCell id="PnB6dPYVmI-Tpx26_ryA-120" value="" style="edgeStyle=orthogonalEdgeStyle;rounded=0;orthogonalLoop=1;jettySize=auto;html=1;entryX=0.5;entryY=0;entryDx=0;entryDy=0;endArrow=none;endFill=0;" edge="1" parent="1" target="PnB6dPYVmI-Tpx26_ryA-119">
          <mxGeometry relative="1" as="geometry">
            <mxPoint x="864.44" y="770.06" as="sourcePoint" />
            <mxPoint x="864.44" y="860.06" as="targetPoint" />
          </mxGeometry>
        </mxCell>
        <mxCell id="PnB6dPYVmI-Tpx26_ryA-123" value="Download Report" style="whiteSpace=wrap;html=1;rounded=0;" vertex="1" parent="1">
          <mxGeometry x="200" y="790" width="120" height="60" as="geometry" />
        </mxCell>
        <mxCell id="PnB6dPYVmI-Tpx26_ryA-124" value="" style="edgeStyle=orthogonalEdgeStyle;rounded=0;orthogonalLoop=1;jettySize=auto;html=1;endArrow=none;endFill=0;exitX=1;exitY=0.5;exitDx=0;exitDy=0;entryX=0;entryY=0.5;entryDx=0;entryDy=0;" edge="1" parent="1" source="PnB6dPYVmI-Tpx26_ryA-103" target="PnB6dPYVmI-Tpx26_ryA-114">
          <mxGeometry relative="1" as="geometry">
            <mxPoint x="450" y="630" as="sourcePoint" />
            <mxPoint x="735" y="700" as="targetPoint" />
          </mxGeometry>
        </mxCell>
        <mxCell id="PnB6dPYVmI-Tpx26_ryA-125" value="" style="edgeStyle=orthogonalEdgeStyle;rounded=0;orthogonalLoop=1;jettySize=auto;html=1;endArrow=none;endFill=0;" edge="1" parent="1" source="PnB6dPYVmI-Tpx26_ryA-51" target="PnB6dPYVmI-Tpx26_ryA-56">
          <mxGeometry relative="1" as="geometry">
            <mxPoint x="805" y="480" as="sourcePoint" />
            <mxPoint x="690" y="560" as="targetPoint" />
          </mxGeometry>
        </mxCell>
        <mxCell id="PnB6dPYVmI-Tpx26_ryA-56" value="Download Report" style="whiteSpace=wrap;html=1;rounded=0;" vertex="1" parent="1">
          <mxGeometry x="630" y="450" width="120" height="60" as="geometry" />
        </mxCell>
        <mxCell id="PnB6dPYVmI-Tpx26_ryA-126" value="Approved" style="rounded=0;whiteSpace=wrap;html=1;" vertex="1" parent="1">
          <mxGeometry x="210" y="550" width="120" height="60" as="geometry" />
        </mxCell>
        <mxCell id="PnB6dPYVmI-Tpx26_ryA-128" value="" style="edgeStyle=orthogonalEdgeStyle;rounded=0;orthogonalLoop=1;jettySize=auto;html=1;endArrow=none;endFill=0;entryX=1;entryY=0.5;entryDx=0;entryDy=0;exitX=0;exitY=0.5;exitDx=0;exitDy=0;" edge="1" parent="1" source="PnB6dPYVmI-Tpx26_ryA-129">
          <mxGeometry relative="1" as="geometry">
            <mxPoint x="645" y="898.75" as="sourcePoint" />
            <mxPoint x="160" y="898.75" as="targetPoint" />
            <Array as="points">
              <mxPoint x="1470" y="899" />
            </Array>
          </mxGeometry>
        </mxCell>
        <mxCell id="PnB6dPYVmI-Tpx26_ryA-129" value="Model" style="rounded=0;whiteSpace=wrap;html=1;" vertex="1" parent="1">
          <mxGeometry x="1470" y="870" width="120" height="60" as="geometry" />
        </mxCell>
        <mxCell id="PnB6dPYVmI-Tpx26_ryA-130" value="" style="edgeStyle=orthogonalEdgeStyle;rounded=0;orthogonalLoop=1;jettySize=auto;html=1;endArrow=none;endFill=0;entryX=0.5;entryY=1;entryDx=0;entryDy=0;exitX=0.5;exitY=1;exitDx=0;exitDy=0;" edge="1" parent="1" source="PnB6dPYVmI-Tpx26_ryA-129" target="PnB6dPYVmI-Tpx26_ryA-108">
          <mxGeometry relative="1" as="geometry">
            <mxPoint x="1390" y="1011.25" as="sourcePoint" />
            <mxPoint x="80" y="1010" as="targetPoint" />
            <Array as="points">
              <mxPoint x="1530" y="1010" />
              <mxPoint x="100" y="1010" />
            </Array>
          </mxGeometry>
        </mxCell>
        <mxCell id="PnB6dPYVmI-Tpx26_ryA-131" value="Send Predict Results" style="text;html=1;align=center;verticalAlign=middle;whiteSpace=wrap;rounded=0;" vertex="1" parent="1">
          <mxGeometry x="1530" y="930" width="130" height="30" as="geometry" />
        </mxCell>
      </root>
    </mxGraphModel>
  </diagram>
</mxfile>
